<svg xmlns="http://www.w3.org/2000/svg" version="1.1" xmlns:xlink="http://www.w3.org/1999/xlink" xmlns:svgjs="http://svgjs.dev/svgjs" width="100%" height="100%" viewBox="0 0 1000 600"><rect width="1000" height="600" x="0" y="0" fill="#000000"/><g><rect width="333.3333333333333" height="333.3333333333333" rx="13.333333333333334" ry="13.333333333333334" y="174.12260788256862" fill="#dc143c" transform="matrix(0.8229078484625683,0,0,0.8229078484625683,0,19.56186097107667)" x="151.90036010742188"/><path d="M364.24977700131274 415.7892775484743L349.95010871380333 376.6410053515223L287.0960339664516 376.6410053515223L273.0014838715909 415.7892775484743L252.5775724035703 415.7892775484743L309.8641533504573 265.7892735243747L327.1819893297976 265.7892735243747L384.5564780735341 415.7892775484743L364.24977700131274 415.7892775484743ZM318.50842004065254 290.19833844957003L293.0737641522137 360.3780629343754L344.0602863248906 360.3780629343754L318.50842004065254 290.19833844957003Z " fill="#ffffff" transform="matrix(0.8229078484625683,0,0,0.8229078484625683,0,19.56186097107667)"/><path d="M655.4175303628006 382.44834515114627L644.2962905664783 352.0016722661328L595.4129721994469 352.0016722661328L584.4512583838095 382.44834515114627L568.567028592751 382.44834515114627L613.1203560554765 265.7892744188229L626.5889067104488 265.7892744188229L671.2106024506107 382.44834515114627L655.4175303628006 382.44834515114627ZM619.8432366700565 284.7728661203321L600.0620150651226 339.3535409403974L639.715615978239 339.3535409403974L619.8432366700565 284.7728661203321ZM757.8104205367268 338.69264759184546L757.8104205367268 340.0600131405736Q757.8104205367268 359.86402417131967 748.763018489309 371.94241985175165Q739.715616441891 384.04360495799574 724.2415963154508 384.04360495799574L724.2415963154508 384.04360495799574Q708.4713136534529 384.04360495799574 699.4011221802228 374.0390470264681L699.4011221802228 374.0390470264681L699.4011221802228 415.78927511430095L684.5879954023345 415.78927511430095L684.5879954023345 295.75736936178157L698.1249143347432 295.75736936178157L698.8541759607315 305.3745070545028Q707.9015780081494 294.16210955493204 724.0137020573294 294.16210955493204L724.0137020573294 294.16210955493204Q739.6244587386425 294.16210955493204 748.7174396376847 305.94424269980624Q757.8104205367268 317.7035864188683 757.8104205367268 338.69264759184546L757.8104205367268 338.69264759184546ZM742.9972937588386 338.37359563047556L742.9972937588386 338.37359563047556Q742.9972937588386 323.7199948332722 736.7529910863134 315.21953900534555Q730.5086884137883 306.741872603231 719.5925534497751 306.741872603231L719.5925534497751 306.741872603231Q706.146792220615 306.741872603231 699.4011221802228 318.6835317287902L699.4011221802228 318.6835317287902L699.4011221802228 360.09191842944097Q706.0556345173665 371.94241985175165 719.7520794304601 371.94241985175165L719.7520794304601 371.94241985175165Q730.4175307105396 371.94241985175165 736.7074122346891 363.51033230126137Q742.9972937588386 355.055455324959 742.9972937588386 338.37359563047556ZM812.6189896149136 384.04360495799574L812.6189896149136 384.04360495799574Q795.0027634621326 384.04360495799574 783.9271025174346 372.4665766454308Q772.8742309985487 360.88954833286573 772.8742309985487 341.5185363925503L772.8742309985487 341.5185363925503L772.8742309985487 338.783805295094Q772.8742309985487 325.8849902854251 777.79674697397 315.74369579902464Q782.7420523752036 305.62519073843634 791.5843495903122 299.88225543377814Q800.4494362312331 294.16210955493204 810.7730461241306 294.16210955493204L810.7730461241306 294.16210955493204Q827.6828000767354 294.16210955493204 837.0492540855232 305.2833493512543Q846.4384975201232 316.42737857338875 846.4384975201232 337.1885454882445L846.4384975201232 337.1885454882445L846.4384975201232 343.34169045752117L787.7101472022491 343.34169045752117Q788.0291991636191 356.17213718975364 795.1850788686297 364.0572785207526Q802.3637479994525 371.94241985175165 813.4166195183384 371.94241985175165L813.4166195183384 371.94241985175165Q821.2789714235253 371.94241985175165 826.7256441926257 368.7519002380526Q832.1723169617261 365.53859119854144 836.2516241820985 360.25144441012594L836.2516241820985 360.25144441012594L845.2990262295164 367.31616641188805Q834.4056806913155 384.04360495799574 812.6189896149136 384.04360495799574ZM810.7730461241306 306.33166293861257L810.7730461241306 306.33166293861257Q801.794012354149 306.33166293861257 795.7092356623089 312.87222814669553Q789.6244589704685 319.3900039289664 788.1887251443039 331.17213707384064L788.1887251443039 331.17213707384064L831.6025813164227 331.17213707384064L831.6025813164227 330.05545520904593Q830.964477393683 318.7519000062266 825.5178046245825 312.55317618532564Q820.071131855482 306.33166293861257 810.7730461241306 306.33166293861257ZM873.6718613656255 295.75736936178157L892.6554530671347 327.41188181483824L911.8897284525773 295.75736936178157L929.1869026439884 295.75736936178157L900.8368569336914 338.624279314409L930.0756902506618 382.44834515114627L912.9380420399356 382.44834515114627L892.9061367510682 349.99620279466484L872.8742314622008 382.44834515114627L855.6454255482261 382.44834515114627L884.8842588651963 338.624279314409L856.5342131548994 295.75736936178157L873.6718613656255 295.75736936178157ZM947.2133384613878 265.7892744188229L967.0857177695704 265.7892744188229L1005.2352165790857 360.98070603611427L1043.361925962789 265.7892744188229L1063.3026735484077 265.7892744188229L1063.3026735484077 382.44834515114627L1047.9198111252163 382.44834515114627L1047.9198111252163 337.0290195075595L1049.378334377193 287.98617515984324L1011.0693095869925 382.44834515114627L999.2871764421183 382.44834515114627L961.0693093551664 288.2368588437767L962.5962008845796 337.0290195075595L962.5962008845796 382.44834515114627L947.2133384613878 382.44834515114627L947.2133384613878 265.7892744188229Z " fill="#ffffff" transform="matrix(0.8229078484625683,0,0,0.8229078484625683,0,19.56186097107667)"/></g></svg>